<svg xmlns="http://www.w3.org/2000/svg" xmlns:xlink="http://www.w3.org/1999/xlink" width="64" zoomAndPan="magnify" viewBox="5.87 8.65 34.7 34.7" height="64" preserveAspectRatio="xMidYMid meet" version="1.0"><defs><g></g><clipPath id="8a9076eaf3"><path d="M 0.671875 0 L 167.832031 0 L 167.832031 52.003906 L 0.671875 52.003906 Z M 0.671875 0 " clip-rule="nonzero"></path></clipPath><clipPath id="9892f5683b"><path d="M 5.871094 8.652344 L 40.570312 8.652344 L 40.570312 43.351562 L 5.871094 43.351562 Z M 5.871094 8.652344 " clip-rule="nonzero"></path></clipPath><clipPath id="e50e245ce3"><path d="M 23.222656 8.652344 C 13.640625 8.652344 5.871094 16.421875 5.871094 26.003906 C 5.871094 35.582031 13.640625 43.351562 23.222656 43.351562 C 32.800781 43.351562 40.570312 35.582031 40.570312 26.003906 C 40.570312 16.421875 32.800781 8.652344 23.222656 8.652344 Z M 23.222656 8.652344 " clip-rule="nonzero"></path></clipPath><clipPath id="f68292a66b"><path d="M 0.871094 0.652344 L 35.570312 0.652344 L 35.570312 35.351562 L 0.871094 35.351562 Z M 0.871094 0.652344 " clip-rule="nonzero"></path></clipPath><clipPath id="c4ec522316"><path d="M 18.222656 0.652344 C 8.640625 0.652344 0.871094 8.421875 0.871094 18.003906 C 0.871094 27.582031 8.640625 35.351562 18.222656 35.351562 C 27.800781 35.351562 35.570312 27.582031 35.570312 18.003906 C 35.570312 8.421875 27.800781 0.652344 18.222656 0.652344 Z M 18.222656 0.652344 " clip-rule="nonzero"></path></clipPath><clipPath id="9d10f95c91"><rect x="0" width="36" y="0" height="36"></rect></clipPath><clipPath id="1b9688c247"><path d="M 12.175781 15 L 34.464844 15 L 34.464844 37.03125 L 12.175781 37.03125 Z M 12.175781 15 " clip-rule="nonzero"></path></clipPath><clipPath id="995d6cb482"><rect x="0" width="105" y="0" height="43"></rect></clipPath></defs><g clip-path="url(#9892f5683b)"><g clip-path="url(#e50e245ce3)"><g transform="matrix(1, 0, 0, 1, 5, 8)"><g clip-path="url(#9d10f95c91)"><g clip-path="url(#f68292a66b)"><g clip-path="url(#c4ec522316)"><path fill="#ed6c52" d="M 0.871094 0.652344 L 35.570312 0.652344 L 35.570312 35.351562 L 0.871094 35.351562 Z M 0.871094 0.652344 " fill-opacity="1" fill-rule="nonzero"></path></g></g></g></g></g></g><g clip-path="url(#1b9688c247)"><path fill="#ffffff" d="M 22.257812 15.164062 L 21.894531 15.242188 L 21.894531 28.347656 L 21.488281 28.347656 C 21.265625 28.347656 21.082031 28.410156 21.082031 28.492188 C 21.082031 28.757812 23.269531 32.445312 23.421875 32.4375 C 23.582031 32.429688 25.785156 28.757812 25.785156 28.5 C 25.785156 28.414062 25.601562 28.347656 25.378906 28.347656 L 24.972656 28.347656 L 24.972656 18.425781 L 25.417969 18.53125 C 26.371094 18.757812 27.636719 19.511719 28.628906 20.441406 C 31.734375 23.34375 31.910156 28.277344 29.011719 31.339844 C 27.371094 33.078125 25.566406 33.875 23.230469 33.90625 L 21.894531 33.921875 L 21.894531 36.914062 L 22.589844 37.019531 C 23.414062 37.144531 25.433594 36.886719 26.535156 36.515625 C 31.582031 34.828125 34.808594 29.753906 34.070312 24.660156 C 33.535156 20.949219 31.300781 17.863281 28.011719 16.292969 C 27.1875 15.902344 26.183594 15.503906 25.785156 15.410156 C 24.898438 15.203125 22.761719 15.054688 22.257812 15.164062 M 18.371094 15.988281 C 17.277344 16.121094 16.382812 16.28125 16.382812 16.34375 C 16.382812 16.402344 16.480469 16.585938 16.597656 16.746094 C 16.789062 17.007812 16.671875 17.179688 15.5 18.355469 C 14.035156 19.824219 13.054688 21.492188 12.566406 23.320312 C 12.195312 24.730469 12.195312 27.421875 12.566406 28.832031 C 13.320312 31.664062 15.53125 34.4375 18.085938 35.746094 C 20.257812 36.859375 20.113281 36.917969 20.113281 34.945312 L 20.113281 33.257812 L 19.425781 32.949219 C 19.046875 32.777344 18.292969 32.203125 17.746094 31.667969 C 14.566406 28.554688 14.554688 23.667969 17.714844 20.503906 L 18.6875 19.535156 L 18.964844 19.902344 L 19.242188 20.273438 L 19.667969 19.324219 C 19.902344 18.804688 20.347656 17.777344 20.664062 17.042969 L 21.234375 15.707031 L 20.792969 15.726562 C 20.550781 15.734375 19.460938 15.855469 18.371094 15.988281 M 52.742188 19.296875 C 52.394531 19.46875 52.035156 20.066406 52.035156 20.484375 C 52.035156 20.609375 52.207031 20.910156 52.414062 21.152344 C 53.113281 21.964844 54.289062 21.621094 54.554688 20.53125 C 54.640625 20.175781 54.566406 19.996094 54.171875 19.597656 C 53.660156 19.085938 53.324219 19.015625 52.742188 19.296875 M 91.40625 19.582031 C 90.992188 19.992188 90.917969 20.171875 91.003906 20.53125 C 91.269531 21.621094 92.445312 21.964844 93.144531 21.152344 C 93.828125 20.355469 93.476562 19.371094 92.433594 19.171875 C 91.996094 19.085938 91.835938 19.152344 91.40625 19.582031 M 39.730469 19.988281 C 39.585938 20.160156 39.558594 20.429688 39.644531 20.847656 C 39.808594 21.652344 39.804688 31 39.644531 31.816406 C 39.441406 32.824219 39.625 32.882812 42.984375 32.882812 C 45.496094 32.882812 45.980469 32.839844 46.753906 32.550781 C 48.472656 31.90625 49.9375 30.105469 50.417969 28.042969 C 50.753906 26.601562 50.554688 24.527344 49.964844 23.265625 C 49.355469 21.964844 48.339844 20.839844 47.261719 20.269531 C 46.46875 19.851562 46.351562 19.835938 43.191406 19.785156 C 40.402344 19.742188 39.910156 19.769531 39.730469 19.988281 M 41.988281 26.335938 L 41.988281 30.972656 L 43.894531 30.910156 C 45.941406 30.839844 46.394531 30.699219 47.242188 29.859375 C 47.5 29.605469 47.898438 29 48.125 28.507812 C 48.464844 27.78125 48.542969 27.378906 48.539062 26.320312 C 48.535156 24.773438 48.121094 23.679688 47.207031 22.785156 C 46.359375 21.960938 45.496094 21.703125 43.589844 21.703125 L 41.988281 21.703125 Z M 52.359375 23.160156 C 51.976562 23.542969 51.941406 24.109375 52.273438 24.546875 C 52.464844 24.800781 52.511719 25.554688 52.515625 28.476562 L 52.523438 32.089844 L 52.921875 32.484375 C 53.40625 32.972656 54.289062 33.023438 54.683594 32.585938 C 55.019531 32.21875 55.03125 31.53125 54.710938 31.261719 C 54.507812 31.09375 54.46875 30.460938 54.46875 27.421875 L 54.46875 23.785156 L 53.992188 23.308594 C 53.4375 22.753906 52.824219 22.695312 52.359375 23.160156 M 55.925781 23.160156 C 55.476562 23.609375 55.503906 24.355469 55.984375 24.726562 C 56.253906 24.933594 56.746094 26.011719 57.628906 28.347656 C 58.980469 31.902344 59.273438 32.574219 59.554688 32.757812 C 59.878906 32.976562 60.570312 32.886719 60.824219 32.601562 C 60.957031 32.445312 61.695312 30.6875 62.460938 28.695312 C 63.410156 26.222656 63.980469 24.957031 64.261719 24.695312 C 64.800781 24.195312 64.796875 23.601562 64.25 23.171875 C 63.695312 22.738281 63.175781 22.746094 62.65625 23.199219 C 62.273438 23.535156 62.050781 24.0625 60.203125 28.996094 C 60.152344 29.128906 59.722656 28.191406 59.234375 26.886719 C 58.015625 23.621094 57.871094 23.332031 57.363281 23.066406 C 56.746094 22.75 56.308594 22.777344 55.925781 23.160156 M 67.753906 23.171875 C 66.804688 23.601562 65.886719 24.5 65.363281 25.511719 C 64.765625 26.664062 64.671875 28.554688 65.148438 29.816406 C 65.589844 30.984375 66.445312 31.972656 67.488281 32.523438 C 68.210938 32.902344 68.507812 32.960938 69.699219 32.953125 C 71.332031 32.945312 72.5 32.515625 73.265625 31.640625 C 73.828125 31 73.859375 30.785156 73.457031 30.289062 C 73.0625 29.800781 72.492188 29.832031 71.652344 30.386719 C 70.773438 30.96875 69.226562 31.121094 68.425781 30.707031 C 67.949219 30.460938 66.945312 29.285156 66.945312 28.96875 C 66.945312 28.894531 68.511719 28.832031 70.425781 28.832031 L 73.90625 28.832031 L 74.164062 28.4375 C 74.359375 28.140625 74.394531 27.847656 74.3125 27.261719 C 73.941406 24.652344 71.984375 22.832031 69.554688 22.839844 C 68.832031 22.84375 68.246094 22.949219 67.753906 23.171875 M 75.914062 23.074219 C 75.460938 23.394531 75.359375 23.855469 75.632812 24.382812 C 75.96875 25.03125 75.953125 30.769531 75.617188 31.425781 C 75 32.617188 76.542969 33.472656 77.492188 32.464844 C 77.875 32.058594 77.886719 31.960938 77.964844 28.777344 C 78.007812 26.980469 78.105469 25.421875 78.175781 25.3125 C 78.402344 24.960938 79.53125 24.75 80.195312 24.933594 C 81.058594 25.175781 81.324219 25.148438 81.691406 24.78125 C 82.128906 24.34375 82.101562 23.78125 81.617188 23.328125 C 81.078125 22.820312 79.164062 22.667969 78.234375 23.058594 C 77.683594 23.289062 77.5625 23.289062 77.148438 23.078125 C 76.566406 22.773438 76.34375 22.773438 75.914062 23.074219 M 84.339844 23.226562 C 83.21875 23.75 82.664062 24.5625 82.664062 25.6875 C 82.664062 27.128906 83.503906 27.976562 85.929688 28.980469 C 86.609375 29.265625 87.285156 29.628906 87.429688 29.789062 C 88.277344 30.722656 86.070312 31.335938 84.46875 30.609375 C 84.082031 30.433594 83.636719 30.289062 83.484375 30.289062 C 83.082031 30.289062 82.664062 30.808594 82.664062 31.304688 C 82.664062 32.234375 84.074219 32.933594 85.988281 32.949219 C 87.121094 32.957031 87.390625 32.898438 88.136719 32.488281 C 89.199219 31.90625 89.632812 31.242188 89.632812 30.210938 C 89.632812 28.804688 88.921875 28.082031 86.390625 26.921875 C 84.421875 26.019531 84.140625 25.515625 85.332031 25.015625 C 86.125 24.683594 86.554688 24.71875 87.445312 25.195312 C 88.125 25.554688 88.285156 25.585938 88.6875 25.417969 C 89.21875 25.199219 89.429688 24.613281 89.179688 24.0625 C 89.085938 23.855469 88.625 23.496094 88.15625 23.261719 C 87 22.6875 85.535156 22.671875 84.339844 23.226562 M 91.253906 23.160156 C 90.871094 23.542969 90.832031 24.171875 91.171875 24.457031 C 91.375 24.625 91.414062 25.25 91.414062 28.210938 C 91.414062 32.53125 91.523438 32.882812 92.863281 32.882812 C 93.683594 32.882812 94.199219 31.757812 93.601562 31.261719 C 93.402344 31.09375 93.359375 30.460938 93.359375 27.421875 L 93.359375 23.785156 L 92.886719 23.308594 C 92.328125 22.753906 91.71875 22.695312 91.253906 23.160156 M 97.816406 23.289062 C 96.714844 23.820312 95.753906 24.796875 95.246094 25.894531 C 94.984375 26.464844 94.902344 26.953125 94.90625 27.941406 C 94.910156 29.101562 94.96875 29.34375 95.460938 30.261719 C 96.441406 32.085938 97.859375 32.9375 99.921875 32.949219 C 101.613281 32.960938 102.621094 32.53125 103.71875 31.328125 C 104.675781 30.28125 105.027344 29.324219 105.027344 27.777344 C 105.027344 26.804688 104.945312 26.453125 104.535156 25.628906 C 103.628906 23.816406 102.292969 22.972656 100.167969 22.878906 C 98.910156 22.820312 98.703125 22.859375 97.816406 23.289062 M 106.683594 23.089844 C 106.296875 23.359375 106.183594 24.25 106.492188 24.558594 C 106.683594 24.75 106.609375 30.75 106.40625 31.816406 C 106.304688 32.335938 106.335938 32.492188 106.578125 32.667969 C 107.066406 33.023438 107.84375 32.933594 108.28125 32.464844 C 108.660156 32.0625 108.675781 31.941406 108.753906 29.15625 C 108.828125 26.542969 108.871094 26.21875 109.175781 25.804688 C 109.363281 25.554688 109.691406 25.257812 109.90625 25.148438 C 110.449219 24.867188 111.601562 24.894531 112.242188 25.199219 C 113.152344 25.628906 113.292969 26.167969 113.292969 29.207031 C 113.292969 31.851562 113.296875 31.890625 113.710938 32.386719 C 114.453125 33.265625 115.722656 32.964844 115.722656 31.910156 C 115.722656 31.652344 115.660156 31.40625 115.585938 31.359375 C 115.507812 31.3125 115.402344 30.121094 115.351562 28.714844 C 115.300781 27.308594 115.167969 25.882812 115.058594 25.546875 C 114.789062 24.730469 113.898438 23.714844 113.074219 23.285156 C 112.125 22.792969 110.234375 22.78125 109.320312 23.269531 L 108.667969 23.613281 L 108.21875 23.226562 C 107.695312 22.773438 107.195312 22.730469 106.683594 23.089844 M 118.804688 23.09375 C 117.132812 23.816406 116.4375 25.425781 117.171875 26.863281 C 117.550781 27.609375 118.320312 28.160156 120 28.890625 C 121.460938 29.527344 121.925781 29.867188 121.851562 30.253906 C 121.710938 30.972656 119.871094 31.171875 118.714844 30.59375 C 117.886719 30.179688 117.253906 30.277344 116.988281 30.863281 C 116.695312 31.503906 117.042969 32.027344 118.074219 32.5 C 119.929688 33.347656 121.972656 33.117188 123.167969 31.921875 C 123.980469 31.109375 124.144531 30.285156 123.695312 29.269531 C 123.296875 28.371094 122.683594 27.898438 120.710938 26.984375 C 119.082031 26.230469 118.664062 25.832031 119.011719 25.378906 C 119.238281 25.082031 119.964844 24.78125 120.460938 24.78125 C 120.644531 24.78125 121.203125 24.972656 121.699219 25.207031 C 122.515625 25.59375 122.640625 25.613281 123.011719 25.40625 C 123.296875 25.246094 123.4375 25.011719 123.472656 24.644531 C 123.539062 23.972656 123.304688 23.691406 122.289062 23.21875 C 121.324219 22.769531 119.6875 22.710938 118.804688 23.09375 M 68.441406 25.121094 C 67.785156 25.449219 67.28125 25.988281 67.058594 26.605469 C 66.964844 26.867188 67.148438 26.886719 69.542969 26.886719 C 70.964844 26.886719 72.132812 26.824219 72.132812 26.75 C 72.132812 26.367188 71.316406 25.46875 70.675781 25.144531 C 69.78125 24.691406 69.320312 24.6875 68.441406 25.121094 M 98.789062 25.089844 C 96.386719 26.199219 96.246094 29.441406 98.550781 30.617188 C 99.882812 31.296875 101.746094 30.835938 102.546875 29.625 C 103.914062 27.558594 102.355469 24.769531 99.84375 24.785156 C 99.621094 24.785156 99.144531 24.921875 98.789062 25.089844 " fill-opacity="1" fill-rule="evenodd"></path></g><g transform="matrix(1, 0, 0, 1, 56, 4)"><g clip-path="url(#995d6cb482)"><g fill="#575756" fill-opacity="1"><g transform="translate(0.0968411, 28.719156)"><g><path d="M 3.75 0 L 3.75 -2.9375 L 6.875 -2.9375 C 7.769531 -2.9375 8.441406 -3.175781 8.890625 -3.65625 C 9.335938 -4.144531 9.5625 -4.84375 9.5625 -5.75 L 9.5625 -8.609375 C 9.5625 -9.515625 9.335938 -10.207031 8.890625 -10.6875 C 8.441406 -11.164062 7.769531 -11.40625 6.875 -11.40625 L 3.734375 -11.40625 L 3.734375 -14.3125 L 7 -14.3125 C 9.03125 -14.3125 10.550781 -13.816406 11.5625 -12.828125 C 12.582031 -11.847656 13.09375 -10.441406 13.09375 -8.609375 L 13.09375 -5.734375 C 13.09375 -3.890625 12.585938 -2.472656 11.578125 -1.484375 C 10.566406 -0.492188 9.039062 0 7 0 Z M 1.296875 0 L 1.296875 -14.3125 L 4.75 -14.3125 L 4.75 0 Z M 1.296875 0 "></path></g></g></g><g fill="#575756" fill-opacity="1"><g transform="translate(14.020807, 28.719156)"><g><path d="M 1.15625 0 L 1.15625 -11 L 4.578125 -11 L 4.578125 0 Z M 2.859375 -12.046875 C 2.222656 -12.046875 1.757812 -12.191406 1.46875 -12.484375 C 1.175781 -12.785156 1.03125 -13.1875 1.03125 -13.6875 L 1.03125 -13.765625 C 1.03125 -14.265625 1.175781 -14.65625 1.46875 -14.9375 C 1.757812 -15.226562 2.222656 -15.375 2.859375 -15.375 C 3.492188 -15.375 3.957031 -15.226562 4.25 -14.9375 C 4.539062 -14.65625 4.6875 -14.265625 4.6875 -13.765625 L 4.6875 -13.6875 C 4.6875 -13.175781 4.539062 -12.773438 4.25 -12.484375 C 3.957031 -12.191406 3.492188 -12.046875 2.859375 -12.046875 Z M 2.859375 -12.046875 "></path></g></g></g><g fill="#575756" fill-opacity="1"><g transform="translate(19.740377, 28.719156)"><g><path d="M 6.046875 -2.234375 L 8.046875 -11 L 11.5625 -11 L 8.640625 0 L 3.15625 0 L 0.21875 -11 L 3.75 -11 L 5.78125 -2.234375 Z M 6.046875 -2.234375 "></path></g></g></g><g fill="#575756" fill-opacity="1"><g transform="translate(31.515306, 28.719156)"><g><path d="M 6.609375 0.28125 C 4.609375 0.28125 3.128906 -0.160156 2.171875 -1.046875 C 1.210938 -1.941406 0.734375 -3.242188 0.734375 -4.953125 L 0.734375 -6.09375 C 0.734375 -7.78125 1.179688 -9.070312 2.078125 -9.96875 C 2.972656 -10.875 4.273438 -11.328125 5.984375 -11.328125 C 7.140625 -11.328125 8.097656 -11.128906 8.859375 -10.734375 C 9.628906 -10.347656 10.203125 -9.789062 10.578125 -9.0625 C 10.960938 -8.34375 11.15625 -7.472656 11.15625 -6.453125 L 11.15625 -6.09375 C 11.15625 -5.8125 11.140625 -5.519531 11.109375 -5.21875 C 11.085938 -4.925781 11.054688 -4.65625 11.015625 -4.40625 L 7.921875 -4.40625 C 7.953125 -4.832031 7.972656 -5.238281 7.984375 -5.625 C 7.992188 -6.007812 8 -6.359375 8 -6.671875 C 8 -7.128906 7.925781 -7.507812 7.78125 -7.8125 C 7.632812 -8.125 7.414062 -8.363281 7.125 -8.53125 C 6.832031 -8.695312 6.453125 -8.78125 5.984375 -8.78125 C 5.296875 -8.78125 4.796875 -8.59375 4.484375 -8.21875 C 4.171875 -7.851562 4.015625 -7.332031 4.015625 -6.65625 L 4.015625 -5.640625 L 4.03125 -5.265625 L 4.03125 -4.484375 C 4.03125 -4.203125 4.078125 -3.929688 4.171875 -3.671875 C 4.265625 -3.421875 4.425781 -3.203125 4.65625 -3.015625 C 4.894531 -2.828125 5.222656 -2.675781 5.640625 -2.5625 C 6.054688 -2.457031 6.582031 -2.40625 7.21875 -2.40625 C 7.894531 -2.40625 8.546875 -2.46875 9.171875 -2.59375 C 9.804688 -2.726562 10.410156 -2.910156 10.984375 -3.140625 L 10.703125 -0.5625 C 10.191406 -0.300781 9.585938 -0.0976562 8.890625 0.046875 C 8.203125 0.203125 7.441406 0.28125 6.609375 0.28125 Z M 2.546875 -4.40625 L 2.546875 -6.515625 L 10.328125 -6.515625 L 10.328125 -4.40625 Z M 2.546875 -4.40625 "></path></g></g></g><g fill="#575756" fill-opacity="1"><g transform="translate(43.379771, 28.719156)"><g><path d="M 4.5 -6.1875 L 3.5625 -8.265625 L 4.359375 -8.265625 C 4.546875 -9.171875 4.894531 -9.882812 5.40625 -10.40625 C 5.925781 -10.925781 6.660156 -11.1875 7.609375 -11.1875 C 7.773438 -11.1875 7.925781 -11.171875 8.0625 -11.140625 C 8.195312 -11.117188 8.332031 -11.097656 8.46875 -11.078125 L 8.625 -7.609375 C 8.46875 -7.660156 8.285156 -7.691406 8.078125 -7.703125 C 7.867188 -7.722656 7.65625 -7.734375 7.4375 -7.734375 C 6.707031 -7.734375 6.09375 -7.597656 5.59375 -7.328125 C 5.09375 -7.054688 4.726562 -6.675781 4.5 -6.1875 Z M 1.140625 0 L 1.140625 -11 L 4.359375 -11 L 4.21875 -7.484375 L 4.5625 -7.4375 L 4.5625 0 Z M 1.140625 0 "></path></g></g></g><g fill="#575756" fill-opacity="1"><g transform="translate(52.255733, 28.719156)"><g><path d="M 5.0625 0.265625 C 4.1875 0.265625 3.394531 0.1875 2.6875 0.03125 C 1.988281 -0.113281 1.390625 -0.289062 0.890625 -0.5 L 0.609375 -3.375 C 1.179688 -3.132812 1.816406 -2.914062 2.515625 -2.71875 C 3.210938 -2.53125 3.96875 -2.4375 4.78125 -2.4375 C 5.425781 -2.4375 5.882812 -2.503906 6.15625 -2.640625 C 6.4375 -2.785156 6.578125 -3.003906 6.578125 -3.296875 L 6.578125 -3.34375 C 6.578125 -3.539062 6.503906 -3.703125 6.359375 -3.828125 C 6.222656 -3.960938 5.984375 -4.082031 5.640625 -4.1875 C 5.304688 -4.289062 4.832031 -4.414062 4.21875 -4.5625 C 3.300781 -4.769531 2.570312 -5.019531 2.03125 -5.3125 C 1.5 -5.613281 1.117188 -5.976562 0.890625 -6.40625 C 0.660156 -6.832031 0.546875 -7.34375 0.546875 -7.9375 L 0.546875 -8.03125 C 0.546875 -9.113281 0.929688 -9.925781 1.703125 -10.46875 C 2.484375 -11.007812 3.628906 -11.28125 5.140625 -11.28125 C 5.992188 -11.28125 6.757812 -11.203125 7.4375 -11.046875 C 8.113281 -10.890625 8.679688 -10.703125 9.140625 -10.484375 L 9.4375 -7.8125 C 8.894531 -8.050781 8.296875 -8.25 7.640625 -8.40625 C 6.984375 -8.5625 6.289062 -8.640625 5.5625 -8.640625 C 5.125 -8.640625 4.78125 -8.609375 4.53125 -8.546875 C 4.28125 -8.492188 4.101562 -8.410156 4 -8.296875 C 3.894531 -8.179688 3.84375 -8.039062 3.84375 -7.875 L 3.84375 -7.84375 C 3.84375 -7.664062 3.898438 -7.515625 4.015625 -7.390625 C 4.140625 -7.265625 4.359375 -7.144531 4.671875 -7.03125 C 4.992188 -6.914062 5.457031 -6.789062 6.0625 -6.65625 C 6.976562 -6.445312 7.71875 -6.210938 8.28125 -5.953125 C 8.851562 -5.703125 9.269531 -5.375 9.53125 -4.96875 C 9.800781 -4.5625 9.9375 -4.019531 9.9375 -3.34375 L 9.9375 -3.25 C 9.9375 -2.0625 9.535156 -1.175781 8.734375 -0.59375 C 7.929688 -0.0195312 6.707031 0.265625 5.0625 0.265625 Z M 5.0625 0.265625 "></path></g></g></g><g fill="#575756" fill-opacity="1"><g transform="translate(62.687508, 28.719156)"><g><path d="M 1.15625 0 L 1.15625 -11 L 4.578125 -11 L 4.578125 0 Z M 2.859375 -12.046875 C 2.222656 -12.046875 1.757812 -12.191406 1.46875 -12.484375 C 1.175781 -12.785156 1.03125 -13.1875 1.03125 -13.6875 L 1.03125 -13.765625 C 1.03125 -14.265625 1.175781 -14.65625 1.46875 -14.9375 C 1.757812 -15.226562 2.222656 -15.375 2.859375 -15.375 C 3.492188 -15.375 3.957031 -15.226562 4.25 -14.9375 C 4.539062 -14.65625 4.6875 -14.265625 4.6875 -13.765625 L 4.6875 -13.6875 C 4.6875 -13.175781 4.539062 -12.773438 4.25 -12.484375 C 3.957031 -12.191406 3.492188 -12.046875 2.859375 -12.046875 Z M 2.859375 -12.046875 "></path></g></g></g><g fill="#575756" fill-opacity="1"><g transform="translate(68.407078, 28.719156)"><g><path d="M 6.125 0.3125 C 4.34375 0.3125 3 -0.128906 2.09375 -1.015625 C 1.1875 -1.898438 0.734375 -3.144531 0.734375 -4.75 L 0.734375 -6.1875 C 0.734375 -7.8125 1.1875 -9.070312 2.09375 -9.96875 C 3.007812 -10.875 4.351562 -11.328125 6.125 -11.328125 C 7.894531 -11.328125 9.234375 -10.875 10.140625 -9.96875 C 11.046875 -9.070312 11.5 -7.8125 11.5 -6.1875 L 11.5 -4.75 C 11.5 -3.144531 11.046875 -1.898438 10.140625 -1.015625 C 9.234375 -0.128906 7.894531 0.3125 6.125 0.3125 Z M 6.125 -2.390625 C 6.757812 -2.390625 7.242188 -2.578125 7.578125 -2.953125 C 7.910156 -3.335938 8.078125 -3.882812 8.078125 -4.59375 L 8.078125 -6.34375 C 8.078125 -7.082031 7.910156 -7.644531 7.578125 -8.03125 C 7.242188 -8.425781 6.757812 -8.625 6.125 -8.625 C 5.488281 -8.625 5.003906 -8.425781 4.671875 -8.03125 C 4.335938 -7.644531 4.171875 -7.082031 4.171875 -6.34375 L 4.171875 -4.59375 C 4.171875 -3.882812 4.335938 -3.335938 4.671875 -2.953125 C 5.003906 -2.578125 5.488281 -2.390625 6.125 -2.390625 Z M 6.125 -2.390625 "></path></g></g></g><g fill="#575756" fill-opacity="1"><g transform="translate(80.640908, 28.719156)"><g><path d="M 8.21875 0 L 8.21875 -6.46875 C 8.21875 -6.875 8.164062 -7.222656 8.0625 -7.515625 C 7.957031 -7.804688 7.78125 -8.03125 7.53125 -8.1875 C 7.289062 -8.351562 6.957031 -8.4375 6.53125 -8.4375 C 6.175781 -8.4375 5.863281 -8.375 5.59375 -8.25 C 5.320312 -8.125 5.09375 -7.953125 4.90625 -7.734375 C 4.726562 -7.523438 4.597656 -7.285156 4.515625 -7.015625 L 3.984375 -8.625 L 4.5625 -8.625 C 4.6875 -9.125 4.882812 -9.570312 5.15625 -9.96875 C 5.425781 -10.363281 5.800781 -10.675781 6.28125 -10.90625 C 6.757812 -11.144531 7.363281 -11.265625 8.09375 -11.265625 C 8.914062 -11.265625 9.585938 -11.101562 10.109375 -10.78125 C 10.628906 -10.46875 11.015625 -10 11.265625 -9.375 C 11.515625 -8.75 11.640625 -7.960938 11.640625 -7.015625 L 11.640625 0 Z M 1.140625 0 L 1.140625 -11 L 4.546875 -11 L 4.4375 -8.25 L 4.5625 -7.921875 L 4.5625 0 Z M 1.140625 0 "></path></g></g></g><g fill="#575756" fill-opacity="1"><g transform="translate(93.322456, 28.719156)"><g><path d="M 5.0625 0.265625 C 4.1875 0.265625 3.394531 0.1875 2.6875 0.03125 C 1.988281 -0.113281 1.390625 -0.289062 0.890625 -0.5 L 0.609375 -3.375 C 1.179688 -3.132812 1.816406 -2.914062 2.515625 -2.71875 C 3.210938 -2.53125 3.96875 -2.4375 4.78125 -2.4375 C 5.425781 -2.4375 5.882812 -2.503906 6.15625 -2.640625 C 6.4375 -2.785156 6.578125 -3.003906 6.578125 -3.296875 L 6.578125 -3.34375 C 6.578125 -3.539062 6.503906 -3.703125 6.359375 -3.828125 C 6.222656 -3.960938 5.984375 -4.082031 5.640625 -4.1875 C 5.304688 -4.289062 4.832031 -4.414062 4.21875 -4.5625 C 3.300781 -4.769531 2.570312 -5.019531 2.03125 -5.3125 C 1.5 -5.613281 1.117188 -5.976562 0.890625 -6.40625 C 0.660156 -6.832031 0.546875 -7.34375 0.546875 -7.9375 L 0.546875 -8.03125 C 0.546875 -9.113281 0.929688 -9.925781 1.703125 -10.46875 C 2.484375 -11.007812 3.628906 -11.28125 5.140625 -11.28125 C 5.992188 -11.28125 6.757812 -11.203125 7.4375 -11.046875 C 8.113281 -10.890625 8.679688 -10.703125 9.140625 -10.484375 L 9.4375 -7.8125 C 8.894531 -8.050781 8.296875 -8.25 7.640625 -8.40625 C 6.984375 -8.5625 6.289062 -8.640625 5.5625 -8.640625 C 5.125 -8.640625 4.78125 -8.609375 4.53125 -8.546875 C 4.28125 -8.492188 4.101562 -8.410156 4 -8.296875 C 3.894531 -8.179688 3.84375 -8.039062 3.84375 -7.875 L 3.84375 -7.84375 C 3.84375 -7.664062 3.898438 -7.515625 4.015625 -7.390625 C 4.140625 -7.265625 4.359375 -7.144531 4.671875 -7.03125 C 4.992188 -6.914062 5.457031 -6.789062 6.0625 -6.65625 C 6.976562 -6.445312 7.71875 -6.210938 8.28125 -5.953125 C 8.851562 -5.703125 9.269531 -5.375 9.53125 -4.96875 C 9.800781 -4.5625 9.9375 -4.019531 9.9375 -3.34375 L 9.9375 -3.25 C 9.9375 -2.0625 9.535156 -1.175781 8.734375 -0.59375 C 7.929688 -0.0195312 6.707031 0.265625 5.0625 0.265625 Z M 5.0625 0.265625 "></path></g></g></g></g></g></svg>